<?xml version="1.0" encoding="utf-8"?>
<!-- Generator: Adobe Illustrator 26.1.0, SVG Export Plug-In . SVG Version: 6.00 Build 0)  -->
<svg version="1.1" id="Слой_1" xmlns="http://www.w3.org/2000/svg" xmlns:xlink="http://www.w3.org/1999/xlink" x="0px" y="0px"
	 viewBox="0 0 1920 1080" style="enable-background:new 0 0 1920 1080;" xml:space="preserve">
<style type="text/css">
	.st0{fill:#E9ECEF;}
	.st1{fill:none;stroke:#E9ECEF;stroke-linecap:round;stroke-linejoin:round;stroke-miterlimit:10;}
	.st2{fill:#F4F4F4;}
	.st3{fill:none;stroke:#E9ECEF;stroke-width:3;stroke-miterlimit:10;}
	.st4{fill:none;stroke:#F4F4F4;stroke-linecap:round;stroke-linejoin:round;stroke-miterlimit:10;}
	.st5{fill:#343A40;}
	.st6{fill:none;stroke:#343A40;stroke-linecap:round;stroke-linejoin:round;stroke-miterlimit:10;}
	.st7{fill:#4A5259;}
	.st8{fill:none;stroke:#343A40;stroke-width:3;stroke-miterlimit:10;}
	.st9{fill:none;stroke:#4A5259;stroke-linecap:round;stroke-linejoin:round;stroke-miterlimit:10;}
</style>
<g>
	<g>
		<g>
			<polygon class="st0" points="-2.6,1079.9 -2.6,769.7 180.9,769.7 180.9,905.5 243.8,905.5 243.8,957.9 361.7,957.9 361.7,855 
				539.2,855 539.2,967.3 671.4,967.3 671.4,985.7 859.9,985.7 859.9,1042.7 976.9,1042.7 976.9,897.7 1195.1,897.7 1195.1,984.2 
				1380.2,920.6 1380.2,1008.9 1508.1,1008.9 1508.1,925.1 1688.5,925.1 1688.5,1019.2 1737.6,1019.2 1737.6,807.3 1922,743 
				1922,1079.9 			"/>
			<g>
				<g>
					<polygon class="st1" points="1866.8,716 1682.4,716 1866.8,671.2 					"/>
					<polyline class="st1" points="1866.8,716 1845.2,676.5 1831.5,716 1809.2,685.2 1791.9,716 1776.6,693.1 1762.6,716 
						1748.2,700 1735.2,716 					"/>
					<circle class="st0" cx="1683.9" cy="745" r="17.1"/>
					<path class="st1" d="M1683.2,715.7c0.7,17.4,0,34.8-2,52c13.2-0.2,17.6,18.1,9.5,26.8c-10.1,6.4-24.9-0.9-23-13.7"/>
				</g>
				<rect x="1810.1" y="716" class="st0" width="33.9" height="91.9"/>
			</g>
			<rect x="693.5" y="1014.2" class="st2" width="23.9" height="33.3"/>
			<rect x="733.8" y="1014.2" class="st2" width="23.9" height="33.3"/>
			<rect x="774.1" y="1014.2" class="st2" width="23.9" height="33.3"/>
			<rect x="814.4" y="1014.2" class="st2" width="23.9" height="33.3"/>
			<g>
				
					<ellipse transform="matrix(0.9855 -0.1695 0.1695 0.9855 -129.9069 26.1137)" class="st3" cx="88" cy="774.1" rx="66.8" ry="66.8"/>
				<circle class="st3" cx="88" cy="770.4" r="39.9"/>
				<rect x="78.9" y="650.9" class="st0" width="18.2" height="57"/>
			</g>
			<g>
				<rect x="230.5" y="782.9" class="st0" width="13.3" height="122.6"/>
				<rect x="291.8" y="835.3" class="st0" width="13.9" height="122.6"/>
				
					<rect x="261.2" y="813.5" transform="matrix(-1.836970e-16 1 -1 -1.836970e-16 1119.2504 583.0276)" class="st0" width="13.9" height="75.2"/>
				
					<rect x="261.2" y="876.2" transform="matrix(-1.836970e-16 1 -1 -1.836970e-16 1181.9272 645.7044)" class="st0" width="13.9" height="75.2"/>
			</g>
			<rect x="859.9" y="1042.7" class="st2" width="117" height="37.3"/>
			<polygon class="st2" points="1689,1079.9 1688.5,1019.2 1737.6,1019.2 1737.1,1079.9 			"/>
			<g>
				<rect x="308" y="977.9" class="st2" width="32.8" height="23.4"/>
				<rect x="253" y="977.9" class="st2" width="32.8" height="23.4"/>
				<rect x="191.8" y="927.3" class="st2" width="32.8" height="23.4"/>
				<rect x="191.8" y="976.7" class="st2" width="32.8" height="23.4"/>
				<rect x="191.8" y="1021.4" class="st2" width="32.8" height="23.4"/>
				<rect x="308" y="1021.4" class="st2" width="32.8" height="23.4"/>
				<rect x="253" y="1021.4" class="st2" width="32.8" height="23.4"/>
			</g>
			<g>
				<rect x="21.2" y="790.5" class="st2" width="19.2" height="260.6"/>
				<rect x="60.6" y="790.5" class="st2" width="19.2" height="260.6"/>
				<rect x="99.5" y="790.5" class="st2" width="19.2" height="260.6"/>
				<rect x="135.4" y="790.5" class="st2" width="19.2" height="260.6"/>
			</g>
			<rect x="1396.9" y="1025.2" class="st2" width="15.5" height="31.9"/>
			<rect x="1425" y="1025.2" class="st2" width="15.5" height="31.9"/>
			<rect x="1453.1" y="1025.2" class="st2" width="15.5" height="31.9"/>
			<rect x="1481.2" y="1025.2" class="st2" width="15.5" height="31.9"/>
			<g>
				<rect x="1766.9" y="883.9" class="st2" width="16.7" height="161.8"/>
				<rect x="1804.8" y="883.9" class="st2" width="16.7" height="161.8"/>
				<rect x="1842.8" y="883.9" class="st2" width="16.7" height="161.8"/>
				<rect x="1880.7" y="883.9" class="st2" width="16.7" height="161.8"/>
				<rect x="1766.9" y="825.9" class="st2" width="54.7" height="33.4"/>
				<rect x="1842.8" y="825.9" class="st2" width="54.7" height="33.4"/>
			</g>
		</g>
		<g>
			<rect x="1526.4" y="942.2" class="st2" width="143.8" height="10.5"/>
			<rect x="1526.4" y="966.7" class="st2" width="143.8" height="10.5"/>
			<rect x="1526.4" y="991.3" class="st2" width="143.8" height="10.5"/>
			<rect x="1526.4" y="1015.9" class="st2" width="143.8" height="10.5"/>
			<rect x="1526.4" y="1040.4" class="st2" width="143.8" height="10.5"/>
		</g>
		<g>
			<rect x="1508.1" y="819.6" class="st0" width="15.3" height="105.4"/>
			<rect x="1569.5" y="872.3" class="st0" width="15.3" height="52.7"/>
			<rect x="1673" y="823.3" class="st0" width="15.3" height="101.7"/>
			<rect x="1624.6" y="833" class="st0" width="15.3" height="92"/>
			<rect x="1508.1" y="894.8" class="st0" width="180.4" height="7.9"/>
			<rect x="1569.5" y="864.5" class="st0" width="119" height="7.9"/>
			<rect x="1624.6" y="833" class="st0" width="63.9" height="7.9"/>
		</g>
		<g>
			<rect x="1005.8" y="920.6" class="st2" width="160.5" height="12.7"/>
			<rect x="1005.8" y="954.8" class="st2" width="160.5" height="12.7"/>
			<rect x="1005.8" y="990.5" class="st2" width="160.5" height="12.7"/>
			<rect x="1005.8" y="1026.2" class="st2" width="160.5" height="12.7"/>
		</g>
		<g>
			<rect x="976.9" y="788.2" class="st0" width="28.8" height="109.5"/>
			<rect x="1166.3" y="838.3" class="st0" width="28.8" height="59.4"/>
			<rect x="1105.2" y="788.2" class="st0" width="28.8" height="109.9"/>
			<rect x="1038" y="838.6" class="st0" width="28.8" height="59.4"/>
			
				<rect x="976.9" y="838.3" transform="matrix(-1 -1.224647e-16 1.224647e-16 -1 2143.2378 1692.36)" class="st0" width="189.3" height="15.7"/>
		</g>
	</g>
	<g>
		<g>
			<g>
				<polyline class="st4" points="1297.8,1008.7 1295.4,769.3 1256.1,769.3 1254.6,995.3 				"/>
				<polyline class="st4" points="1295.4,769.3 1255.9,782.7 1295.4,789.6 1255.8,806 1295.4,815.5 1255.8,830.2 1296.1,840 
					1255.8,856.1 1296.1,868.5 1255.3,881.6 1296.7,898.4 1255.3,911.8 1296.9,923.3 1255.3,939.6 1297.8,952.4 1255.3,961.3 
					1297.4,974.7 				"/>
			</g>
			
				<rect x="1377.6" y="871.3" transform="matrix(-1 -1.224647e-16 1.224647e-16 -1 2860.0371 1757.8855)" class="st2" width="104.8" height="15.2"/>
			<polyline class="st4" points="1458,769.3 1433.1,842.5 1396.5,769.3 			"/>
			<polyline class="st4" points="1479.2,871.3 1433.1,843.5 1380.5,871.3 			"/>
			<circle class="st2" cx="1433.1" cy="843.5" r="6.5"/>
			<g>
				<polyline class="st4" points="1296.1,743.9 1258.8,668.5 1256.1,743.9 				"/>
				<polyline class="st4" points="1267.4,686 1257.9,692 1275.3,702 1257.2,711.3 1283.2,717.8 1257.2,723.3 1290.6,732.8 
					1256.3,743.9 				"/>
			</g>
			<polyline class="st4" points="1430.3,743.9 1258.8,668.5 1202.1,752.2 			"/>
			<g>
				<polygon class="st4" points="1256.1,769.3 1458,769.3 1430.3,743.9 1256.1,743.9 				"/>
				<polyline class="st4" points="1256.1,743.9 1273.4,769.3 1289.1,743.9 1306.3,769.3 1324.5,743.9 1347.1,769.3 1362.1,743.9 
					1384.4,769.3 1399.8,743.9 1426.1,769.3 1426.1,743.9 				"/>
				<line class="st4" x1="1273.1" y1="769.3" x2="1273.1" y2="743.9"/>
				<line class="st4" x1="1305.8" y1="769.3" x2="1305.8" y2="743.9"/>
				<line class="st4" x1="1346.5" y1="769.3" x2="1346.5" y2="743.9"/>
				<line class="st4" x1="1384.6" y1="769.3" x2="1384.6" y2="743.9"/>
			</g>
			
				<rect x="1195.1" y="750.4" transform="matrix(-1 -1.224647e-16 1.224647e-16 -1 2451.177 1511.7019)" class="st2" width="60.9" height="10.8"/>
		</g>
		<g>
			<polygon class="st2" points="1380.2,920.6 1380.2,1079.9 1191.8,1079.9 1195.1,970 			"/>
			<g>
				<rect x="1218.4" y="983.2" class="st0" width="23.3" height="31.9"/>
				<rect x="1255.7" y="983.2" class="st0" width="23.3" height="31.9"/>
				<rect x="1293.1" y="983.2" class="st0" width="23.3" height="31.9"/>
				<rect x="1330.4" y="983.2" class="st0" width="23.3" height="31.9"/>
				<rect x="1218.4" y="1025.2" class="st0" width="23.3" height="31.9"/>
				<rect x="1255.7" y="1025.2" class="st0" width="23.3" height="31.9"/>
				<rect x="1293.1" y="1025.2" class="st0" width="23.3" height="31.9"/>
				<rect x="1330.4" y="1025.2" class="st0" width="23.3" height="31.9"/>
			</g>
		</g>
	</g>
	<g>
		<rect x="539.2" y="912.3" class="st2" width="132.2" height="167.6"/>
		<rect x="601.3" y="892.9" class="st2" width="43.6" height="19.4"/>
		<g>
			<polygon class="st4" points="593.9,892.9 778.3,892.9 593.9,848.2 			"/>
			<polyline class="st4" points="593.9,892.9 615.5,853.4 629.2,892.9 651.5,862.2 668.8,892.9 684.1,870 698.1,892.9 712.5,876.9 
				725.5,892.9 			"/>
			<path class="st2" d="M793.8,922c0,9.4-7.6,17.1-17.1,17.1c-9.4,0-17.1-7.6-17.1-17.1c0-9.4,7.6-17.1,17.1-17.1
				C786.2,904.9,793.8,912.5,793.8,922z"/>
			<path class="st4" d="M777.5,892.6c-0.7,17.4,0,34.8,2,52c-13.2-0.2-17.6,18.1-9.5,26.8c10.1,6.4,24.9-0.9,23-13.7"/>
		</g>
		<g>
			<rect x="361.7" y="855" class="st2" width="177.4" height="224.6"/>
			<rect x="361.7" y="808.8" class="st2" width="118.9" height="46.2"/>
			<rect x="361.7" y="772.1" class="st2" width="82.9" height="36.7"/>
			<g>
				<g>
					<polyline class="st4" points="381.1,821.3 383.5,581.8 422.8,581.8 424.3,807.9 					"/>
					<polyline class="st4" points="383.5,581.8 422.9,595.3 383.5,602.2 423.1,618.5 383.5,628 423.1,642.8 382.8,652.6 
						423.1,668.7 382.8,681.1 423.6,694.2 382.2,710.9 423.6,724.4 381.9,735.8 423.6,752.2 381.1,765 423.6,773.8 381.4,787.2 
											"/>
				</g>
				<rect x="180.9" y="706.3" class="st2" width="104.8" height="15.2"/>
				<polyline class="st4" points="162.4,581.8 236.8,677.4 306.2,581.8 				"/>
				<polyline class="st4" points="184.2,706.3 236.8,677.4 282.8,706.3 				"/>
				<path class="st2" d="M243.3,678.4c0,3.6-2.9,6.5-6.5,6.5c-3.6,0-6.5-2.9-6.5-6.5c0-3.6,2.9-6.5,6.5-6.5
					C240.3,671.9,243.3,674.8,243.3,678.4z"/>
				<g>
					<polyline class="st4" points="382.8,556.5 420.1,481.1 422.8,556.5 					"/>
					<polyline class="st4" points="411.5,498.5 421,504.5 403.5,514.6 421.6,523.9 395.7,530.3 421.6,535.9 388.3,545.3 
						422.6,556.5 					"/>
				</g>
				<polyline class="st4" points="198.2,556.5 420.1,481.1 476.8,564.8 				"/>
				<g>
					<polygon class="st4" points="422.8,581.8 162.4,581.8 198.2,556.5 422.8,556.5 					"/>
					<polyline class="st4" points="422.8,556.5 400.5,581.8 380.2,556.5 358,581.8 334.5,556.5 305.4,581.8 286.1,556.5 
						257.3,581.8 237.4,556.5 203.6,581.8 203.6,556.5 					"/>
					<line class="st4" x1="400.8" y1="581.8" x2="400.8" y2="556.5"/>
					<line class="st4" x1="358.7" y1="581.8" x2="358.7" y2="556.5"/>
					<line class="st4" x1="306.2" y1="581.8" x2="306.2" y2="556.5"/>
					<line class="st4" x1="257.1" y1="581.8" x2="257.1" y2="556.5"/>
				</g>
				<rect x="422.8" y="563" class="st2" width="60.9" height="10.8"/>
			</g>
		</g>
		<g>
			<rect x="395.7" y="825.4" class="st0" width="60.1" height="19.8"/>
			<rect x="395.7" y="782.9" class="st0" width="25.4" height="19.8"/>
			<rect x="395.7" y="871.4" class="st0" width="120.3" height="33.5"/>
			<rect x="395.7" y="924.4" class="st0" width="249.1" height="25.8"/>
			<rect x="395.7" y="967.3" class="st0" width="249.1" height="25.8"/>
			<rect x="395.7" y="1017.9" class="st0" width="249.1" height="25.8"/>
		</g>
	</g>
</g>
</svg>
