<?xml version="1.0" encoding="utf-8"?>
<!-- Generator: Adobe Illustrator 26.1.0, SVG Export Plug-In . SVG Version: 6.00 Build 0)  -->
<svg version="1.1" id="Слой_1" xmlns="http://www.w3.org/2000/svg" xmlns:xlink="http://www.w3.org/1999/xlink" x="0px" y="0px"
	 viewBox="0 0 1920 1080" style="enable-background:new 0 0 1920 1080;" xml:space="preserve">
<style type="text/css">
	.st0{fill:#E9ECEF;}
	.st1{fill:none;stroke:#E9ECEF;stroke-linecap:round;stroke-linejoin:round;stroke-miterlimit:10;}
	.st2{fill:#F4F4F4;}
	.st3{fill:none;stroke:#E9ECEF;stroke-width:3;stroke-miterlimit:10;}
	.st4{fill:none;stroke:#F4F4F4;stroke-linecap:round;stroke-linejoin:round;stroke-miterlimit:10;}
	.st5{fill:#343A40;}
	.st6{fill:none;stroke:#343A40;stroke-linecap:round;stroke-linejoin:round;stroke-miterlimit:10;}
	.st7{fill:#4A5259;}
	.st8{fill:none;stroke:#343A40;stroke-width:3;stroke-miterlimit:10;}
	.st9{fill:none;stroke:#4A5259;stroke-linecap:round;stroke-linejoin:round;stroke-miterlimit:10;}
</style>
<g>
	<g>
		<g>
			<polygon class="st5" points="-2.8,1079.9 -2.8,769.7 180.7,769.7 180.7,905.5 243.6,905.5 243.6,957.9 361.5,957.9 361.5,855 
				538.9,855 538.9,967.3 671.1,967.3 671.1,985.7 859.7,985.7 859.7,1042.7 976.7,1042.7 976.7,897.7 1194.9,897.7 1194.9,984.2 
				1380,920.6 1380,1008.9 1507.9,1008.9 1507.9,925.1 1688.3,925.1 1688.3,1019.2 1737.4,1019.2 1737.4,807.3 1921.8,743 
				1921.8,1079.9 			"/>
			<g>
				<g>
					<polygon class="st6" points="1866.6,716 1682.2,716 1866.6,671.2 					"/>
					<polyline class="st6" points="1866.6,716 1845,676.5 1831.3,716 1808.9,685.2 1791.7,716 1776.4,693.1 1762.3,716 1748,700 
						1735,716 					"/>
					<circle class="st5" cx="1683.7" cy="745" r="17.1"/>
					<path class="st6" d="M1683,715.7c0.7,17.4,0,34.8-2,52c13.2-0.2,17.6,18.1,9.5,26.8c-10.1,6.4-24.9-0.9-23-13.7"/>
				</g>
				<rect x="1809.9" y="716" class="st5" width="33.9" height="91.9"/>
			</g>
			<rect x="693.3" y="1014.2" class="st7" width="23.9" height="33.3"/>
			<rect x="733.6" y="1014.2" class="st7" width="23.9" height="33.3"/>
			<rect x="773.9" y="1014.2" class="st7" width="23.9" height="33.3"/>
			<rect x="814.1" y="1014.2" class="st7" width="23.9" height="33.3"/>
			<g>
				
					<ellipse transform="matrix(0.9855 -0.1695 0.1695 0.9855 -129.9102 26.0751)" class="st8" cx="87.8" cy="774.1" rx="66.8" ry="66.8"/>
				<circle class="st8" cx="87.8" cy="770.4" r="39.9"/>
				<rect x="78.7" y="650.9" class="st5" width="18.2" height="57"/>
			</g>
			<g>
				<rect x="230.3" y="782.9" class="st5" width="13.3" height="122.6"/>
				<rect x="291.6" y="835.3" class="st5" width="13.9" height="122.6"/>
				
					<rect x="260.9" y="813.5" transform="matrix(-1.836970e-16 1 -1 -1.836970e-16 1119.0225 583.2555)" class="st5" width="13.9" height="75.2"/>
				
					<rect x="260.9" y="876.2" transform="matrix(-1.836970e-16 1 -1 -1.836970e-16 1181.6993 645.9324)" class="st5" width="13.9" height="75.2"/>
			</g>
			<rect x="859.7" y="1042.7" class="st7" width="117" height="37.3"/>
			<polygon class="st7" points="1688.7,1079.9 1688.3,1019.2 1737.4,1019.2 1736.9,1079.9 			"/>
			<g>
				<rect x="307.8" y="977.9" class="st7" width="32.8" height="23.4"/>
				<rect x="252.7" y="977.9" class="st7" width="32.8" height="23.4"/>
				<rect x="191.6" y="927.3" class="st7" width="32.8" height="23.4"/>
				<rect x="191.6" y="976.7" class="st7" width="32.8" height="23.4"/>
				<rect x="191.6" y="1021.4" class="st7" width="32.8" height="23.4"/>
				<rect x="307.8" y="1021.4" class="st7" width="32.8" height="23.4"/>
				<rect x="252.7" y="1021.4" class="st7" width="32.8" height="23.4"/>
			</g>
			<g>
				<rect x="21" y="790.5" class="st7" width="19.2" height="260.6"/>
				<rect x="60.3" y="790.5" class="st7" width="19.2" height="260.6"/>
				<rect x="99.3" y="790.5" class="st7" width="19.2" height="260.6"/>
				<rect x="135.2" y="790.5" class="st7" width="19.2" height="260.6"/>
			</g>
			<rect x="1396.6" y="1025.2" class="st7" width="15.5" height="31.9"/>
			<rect x="1424.8" y="1025.2" class="st7" width="15.5" height="31.9"/>
			<rect x="1452.9" y="1025.2" class="st7" width="15.5" height="31.9"/>
			<rect x="1481" y="1025.2" class="st7" width="15.5" height="31.9"/>
			<g>
				<rect x="1766.6" y="883.9" class="st7" width="16.7" height="161.8"/>
				<rect x="1804.6" y="883.9" class="st7" width="16.7" height="161.8"/>
				<rect x="1842.5" y="883.9" class="st7" width="16.7" height="161.8"/>
				<rect x="1880.5" y="883.9" class="st7" width="16.7" height="161.8"/>
				<rect x="1766.6" y="825.9" class="st7" width="54.7" height="33.4"/>
				<rect x="1842.5" y="825.9" class="st7" width="54.7" height="33.4"/>
			</g>
		</g>
		<g>
			<rect x="1526.2" y="942.2" class="st7" width="143.8" height="10.5"/>
			<rect x="1526.2" y="966.7" class="st7" width="143.8" height="10.5"/>
			<rect x="1526.2" y="991.3" class="st7" width="143.8" height="10.5"/>
			<rect x="1526.2" y="1015.9" class="st7" width="143.8" height="10.5"/>
			<rect x="1526.2" y="1040.4" class="st7" width="143.8" height="10.5"/>
		</g>
		<g>
			<rect x="1507.9" y="819.6" class="st5" width="15.3" height="105.4"/>
			<rect x="1569.3" y="872.3" class="st5" width="15.3" height="52.7"/>
			<rect x="1672.7" y="823.3" class="st5" width="15.3" height="101.7"/>
			<rect x="1624.3" y="833" class="st5" width="15.3" height="92"/>
			<rect x="1507.9" y="894.8" class="st5" width="180.4" height="7.9"/>
			<rect x="1569.3" y="864.5" class="st5" width="119" height="7.9"/>
			<rect x="1624.3" y="833" class="st5" width="63.9" height="7.9"/>
		</g>
		<g>
			<rect x="1005.5" y="920.6" class="st7" width="160.5" height="12.7"/>
			<rect x="1005.5" y="954.8" class="st7" width="160.5" height="12.7"/>
			<rect x="1005.5" y="990.5" class="st7" width="160.5" height="12.7"/>
			<rect x="1005.5" y="1026.2" class="st7" width="160.5" height="12.7"/>
		</g>
		<g>
			<rect x="976.7" y="788.2" class="st5" width="28.8" height="109.5"/>
			<rect x="1166.1" y="838.3" class="st5" width="28.8" height="59.4"/>
			<rect x="1105" y="788.2" class="st5" width="28.8" height="109.9"/>
			<rect x="1037.8" y="838.6" class="st5" width="28.8" height="59.4"/>
			
				<rect x="976.7" y="838.3" transform="matrix(-1 -1.224647e-16 1.224647e-16 -1 2142.782 1692.36)" class="st5" width="189.3" height="15.7"/>
		</g>
	</g>
	<g>
		<g>
			<g>
				<polyline class="st9" points="1297.6,1008.7 1295.1,769.3 1255.8,769.3 1254.4,995.3 				"/>
				<polyline class="st9" points="1295.1,769.3 1255.7,782.7 1295.1,789.6 1255.6,806 1295.1,815.5 1255.6,830.2 1295.9,840 
					1255.6,856.1 1295.9,868.5 1255.1,881.6 1296.4,898.4 1255.1,911.8 1296.7,923.3 1255.1,939.6 1297.6,952.4 1255.1,961.3 
					1297.2,974.7 				"/>
			</g>
			
				<rect x="1377.4" y="871.3" transform="matrix(-1 -1.224647e-16 1.224647e-16 -1 2859.5813 1757.8855)" class="st7" width="104.8" height="15.2"/>
			<polyline class="st9" points="1457.8,769.3 1432.9,842.5 1396.3,769.3 			"/>
			<polyline class="st9" points="1478.9,871.3 1432.9,843.5 1380.3,871.3 			"/>
			<circle class="st7" cx="1432.9" cy="843.5" r="6.5"/>
			<g>
				<polyline class="st9" points="1295.9,743.9 1258.5,668.5 1255.8,743.9 				"/>
				<polyline class="st9" points="1267.2,686 1257.7,692 1275.1,702 1257,711.3 1282.9,717.8 1257,723.3 1290.4,732.8 1256.1,743.9 
									"/>
			</g>
			<polyline class="st9" points="1430,743.9 1258.5,668.5 1201.9,752.2 			"/>
			<g>
				<polygon class="st9" points="1255.8,769.3 1457.8,769.3 1430,743.9 1255.8,743.9 				"/>
				<polyline class="st9" points="1255.8,743.9 1273.1,769.3 1288.9,743.9 1306.1,769.3 1324.3,743.9 1346.9,769.3 1361.9,743.9 
					1384.2,769.3 1399.6,743.9 1425.8,769.3 1425.8,743.9 				"/>
				<line class="st9" x1="1272.9" y1="769.3" x2="1272.9" y2="743.9"/>
				<line class="st9" x1="1305.5" y1="769.3" x2="1305.5" y2="743.9"/>
				<line class="st9" x1="1346.3" y1="769.3" x2="1346.3" y2="743.9"/>
				<line class="st9" x1="1384.3" y1="769.3" x2="1384.3" y2="743.9"/>
			</g>
			
				<rect x="1194.9" y="750.4" transform="matrix(-1 -1.224647e-16 1.224647e-16 -1 2450.7212 1511.7019)" class="st7" width="60.9" height="10.8"/>
		</g>
		<g>
			<polygon class="st7" points="1380,920.6 1380,1079.9 1191.6,1079.9 1194.9,970 			"/>
			<g>
				<rect x="1218.2" y="983.2" class="st5" width="23.3" height="31.9"/>
				<rect x="1255.5" y="983.2" class="st5" width="23.3" height="31.9"/>
				<rect x="1292.8" y="983.2" class="st5" width="23.3" height="31.9"/>
				<rect x="1330.2" y="983.2" class="st5" width="23.3" height="31.9"/>
				<rect x="1218.2" y="1025.2" class="st5" width="23.3" height="31.9"/>
				<rect x="1255.5" y="1025.2" class="st5" width="23.3" height="31.9"/>
				<rect x="1292.8" y="1025.2" class="st5" width="23.3" height="31.9"/>
				<rect x="1330.2" y="1025.2" class="st5" width="23.3" height="31.9"/>
			</g>
		</g>
	</g>
	<g>
		<rect x="538.9" y="912.3" class="st7" width="132.2" height="167.6"/>
		<rect x="601" y="892.9" class="st7" width="43.6" height="19.4"/>
		<g>
			<polygon class="st9" points="593.6,892.9 778.1,892.9 593.6,848.2 			"/>
			<polyline class="st9" points="593.6,892.9 615.3,853.4 628.9,892.9 651.3,862.2 668.6,892.9 683.8,870 697.9,892.9 712.3,876.9 
				725.3,892.9 			"/>
			<path class="st7" d="M793.6,922c0,9.4-7.6,17.1-17.1,17.1c-9.4,0-17.1-7.6-17.1-17.1c0-9.4,7.6-17.1,17.1-17.1
				C785.9,904.9,793.6,912.5,793.6,922z"/>
			<path class="st9" d="M777.3,892.6c-0.7,17.4,0,34.8,2,52c-13.2-0.2-17.6,18.1-9.5,26.8c10.1,6.4,24.9-0.9,23-13.7"/>
		</g>
		<g>
			<rect x="361.5" y="855" class="st7" width="177.4" height="224.6"/>
			<rect x="361.5" y="808.8" class="st7" width="118.9" height="46.2"/>
			<rect x="361.5" y="772.1" class="st7" width="82.9" height="36.7"/>
			<g>
				<g>
					<polyline class="st9" points="380.9,821.3 383.3,581.8 422.6,581.8 424.1,807.9 					"/>
					<polyline class="st9" points="383.3,581.8 422.7,595.3 383.3,602.2 422.8,618.5 383.3,628 422.8,642.8 382.6,652.6 
						422.8,668.7 382.6,681.1 423.3,694.2 382,710.9 423.3,724.4 381.7,735.8 423.3,752.2 380.9,765 423.3,773.8 381.2,787.2 					
						"/>
				</g>
				<rect x="180.7" y="706.3" class="st7" width="104.8" height="15.2"/>
				<polyline class="st9" points="162.2,581.8 236.5,677.4 306,581.8 				"/>
				<polyline class="st9" points="183.9,706.3 236.5,677.4 282.6,706.3 				"/>
				<path class="st7" d="M243,678.4c0,3.6-2.9,6.5-6.5,6.5s-6.5-2.9-6.5-6.5c0-3.6,2.9-6.5,6.5-6.5S243,674.8,243,678.4z"/>
				<g>
					<polyline class="st9" points="382.5,556.5 419.9,481.1 422.6,556.5 					"/>
					<polyline class="st9" points="411.2,498.5 420.7,504.5 403.3,514.6 421.4,523.9 395.5,530.3 421.4,535.9 388.1,545.3 
						422.4,556.5 					"/>
				</g>
				<polyline class="st9" points="198,556.5 419.9,481.1 476.6,564.8 				"/>
				<g>
					<polygon class="st9" points="422.6,581.8 162.2,581.8 198,556.5 422.6,556.5 					"/>
					<polyline class="st9" points="422.6,556.5 400.3,581.8 379.9,556.5 357.8,581.8 334.3,556.5 305.2,581.8 285.8,556.5 
						257.1,581.8 237.2,556.5 203.4,581.8 203.4,556.5 					"/>
					<line class="st9" x1="400.6" y1="581.8" x2="400.6" y2="556.5"/>
					<line class="st9" x1="358.5" y1="581.8" x2="358.5" y2="556.5"/>
					<line class="st9" x1="306" y1="581.8" x2="306" y2="556.5"/>
					<line class="st9" x1="256.9" y1="581.8" x2="256.9" y2="556.5"/>
				</g>
				<rect x="422.6" y="563" class="st7" width="60.9" height="10.8"/>
			</g>
		</g>
		<g>
			<rect x="395.5" y="825.4" class="st5" width="60.1" height="19.8"/>
			<rect x="395.5" y="782.9" class="st5" width="25.4" height="19.8"/>
			<rect x="395.5" y="871.4" class="st5" width="120.3" height="33.5"/>
			<rect x="395.5" y="924.4" class="st5" width="249.1" height="25.8"/>
			<rect x="395.5" y="967.3" class="st5" width="249.1" height="25.8"/>
			<rect x="395.5" y="1017.9" class="st5" width="249.1" height="25.8"/>
		</g>
	</g>
</g>
</svg>
